<svg id="visual" viewBox="0 0 900 600" width="900" height="600" xmlns="http://www.w3.org/2000/svg" xmlns:xlink="http://www.w3.org/1999/xlink" version="1.1"><rect x="0" y="0" width="900" height="600" fill="#000000"></rect><path d="M0 410L225 410L225 419L450 419L450 407L675 407L675 398L900 398L900 398L900 601L900 601L675 601L675 601L450 601L450 601L225 601L225 601L0 601Z" fill="#0400ff"></path><path d="M0 462L225 462L225 461L450 461L450 450L675 450L675 447L900 447L900 462L900 601L900 601L675 601L675 601L450 601L450 601L225 601L225 601L0 601Z" fill="#1200d8"></path><path d="M0 504L225 504L225 506L450 506L450 514L675 514L675 508L900 508L900 508L900 601L900 601L675 601L675 601L450 601L450 601L225 601L225 601L0 601Z" fill="#1500b3"></path><path d="M0 548L225 548L225 557L450 557L450 547L675 547L675 559L900 559L900 559L900 601L900 601L675 601L675 601L450 601L450 601L225 601L225 601L0 601Z" fill="#14008f"></path></svg>