<svg id="svg" version="1.1" xmlns="http://www.w3.org/2000/svg" xmlns:xlink="http://www.w3.org/1999/xlink" width="400" height="225" viewBox="0, 0, 400,225"><g id="svgg"><path id="path0" d="M186.667 37.016 C 186.495 37.086,186.001 37.420,185.570 37.758 C 184.139 38.880,184.089 39.010,181.073 49.479 C 180.610 51.083,179.942 53.380,179.588 54.583 C 179.233 55.786,178.622 57.969,178.230 59.434 C 177.837 60.899,177.457 62.192,177.385 62.309 C 177.314 62.425,176.894 63.851,176.453 65.479 C 174.785 71.630,173.980 74.467,173.785 74.883 C 173.675 75.119,173.330 76.344,173.019 77.604 C 172.708 78.865,172.329 80.177,172.177 80.521 C 172.024 80.865,171.609 82.307,171.255 83.725 C 170.901 85.144,170.526 86.463,170.422 86.657 C 170.318 86.851,169.944 88.156,169.590 89.556 C 169.237 90.956,168.813 92.449,168.648 92.874 C 168.484 93.299,168.104 94.630,167.804 95.833 C 167.505 97.036,167.132 98.302,166.976 98.646 C 166.820 98.990,166.405 100.434,166.053 101.856 C 165.701 103.278,165.331 104.544,165.232 104.669 C 165.132 104.794,164.882 105.620,164.676 106.504 L 164.302 108.113 144.807 108.177 C 129.811 108.226,125.134 108.301,124.538 108.503 C 122.664 109.138,121.730 110.716,120.937 114.583 C 120.643 116.016,120.316 117.375,120.211 117.604 C 120.105 117.833,119.724 119.521,119.363 121.354 C 119.003 123.188,118.635 124.781,118.545 124.896 C 118.455 125.010,118.260 125.795,118.111 126.640 C 117.802 128.394,117.683 128.261,117.284 125.717 C 117.141 124.807,116.948 123.964,116.855 123.845 C 116.762 123.725,116.352 121.943,115.943 119.886 C 114.752 113.891,113.633 108.552,113.238 106.979 C 113.036 106.177,112.606 104.161,112.283 102.500 C 111.959 100.839,111.552 98.917,111.377 98.229 C 111.203 97.542,110.822 95.760,110.531 94.271 C 107.959 81.114,107.271 78.668,105.968 78.050 C 103.480 76.869,101.388 78.351,100.834 81.687 C 100.693 82.535,100.350 84.214,100.072 85.417 C 99.793 86.620,99.238 89.198,98.839 91.146 C 98.439 93.094,97.976 95.156,97.810 95.729 C 97.643 96.302,97.215 98.271,96.858 100.104 C 96.501 101.938,96.137 103.578,96.050 103.750 C 95.963 103.922,95.677 105.248,95.415 106.697 L 94.939 109.331 91.897 109.456 C 84.444 109.762,73.366 110.031,56.354 110.317 C 30.121 110.759,12.976 111.029,8.604 111.070 C 5.372 111.100,4.793 111.154,4.686 111.433 C 4.306 112.423,4.612 112.448,19.688 112.706 C 26.677 112.826,34.411 113.016,36.875 113.128 C 39.339 113.240,47.260 113.425,54.479 113.539 C 61.698 113.653,73.932 113.851,81.667 113.980 C 98.641 114.262,98.137 114.337,99.064 111.400 C 99.253 110.802,99.463 110.172,99.531 110.000 C 99.599 109.828,100.005 108.234,100.434 106.458 C 102.433 98.181,102.896 96.318,103.076 95.833 C 103.183 95.547,103.444 94.471,103.657 93.443 L 104.043 91.573 104.290 93.300 C 104.426 94.249,104.645 95.419,104.778 95.899 C 104.911 96.378,105.338 98.552,105.727 100.729 C 106.725 106.323,107.860 112.421,108.131 113.646 C 108.258 114.219,108.736 116.703,109.193 119.167 C 109.650 121.630,110.391 125.615,110.839 128.021 C 111.287 130.427,111.982 134.177,112.384 136.354 C 114.140 145.860,114.607 146.773,117.708 146.757 C 119.791 146.746,120.969 145.760,121.596 143.500 C 121.764 142.893,121.984 142.208,122.083 141.979 C 122.183 141.750,122.562 140.109,122.924 138.333 C 123.287 136.557,123.657 135.010,123.746 134.896 C 123.835 134.781,124.210 133.234,124.580 131.458 C 124.950 129.682,125.336 128.073,125.437 127.881 C 125.539 127.690,125.909 126.143,126.259 124.444 C 126.610 122.744,127.075 120.792,127.294 120.104 C 127.513 119.417,127.794 118.327,127.918 117.684 C 128.042 117.040,128.272 116.337,128.430 116.121 C 128.764 115.664,127.049 115.687,151.478 115.808 C 164.052 115.870,167.608 115.830,168.249 115.620 C 169.593 115.180,170.713 114.106,171.342 112.653 C 171.651 111.939,171.988 111.167,172.090 110.938 C 172.193 110.708,172.602 109.349,172.999 107.917 C 173.397 106.484,174.106 104.024,174.576 102.450 C 176.111 97.307,177.061 94.095,177.614 92.188 C 177.912 91.156,178.474 89.281,178.862 88.021 C 179.250 86.760,179.854 84.745,180.204 83.542 C 180.554 82.339,181.216 80.089,181.675 78.542 C 182.134 76.995,182.846 74.557,183.255 73.125 C 183.665 71.693,184.071 70.427,184.157 70.313 C 184.244 70.198,184.471 69.448,184.663 68.646 C 184.854 67.844,185.331 66.156,185.721 64.896 C 186.112 63.635,186.561 62.135,186.719 61.563 L 187.006 60.521 187.155 61.875 C 187.237 62.620,187.401 63.718,187.520 64.316 C 187.733 65.393,188.636 71.945,190.189 83.678 C 190.631 87.019,191.041 89.832,191.101 89.928 C 191.160 90.025,191.500 92.495,191.857 95.417 C 192.214 98.339,192.594 101.057,192.703 101.458 C 192.811 101.859,193.234 104.859,193.643 108.125 C 194.052 111.391,194.472 114.344,194.577 114.688 C 194.682 115.031,195.055 117.703,195.405 120.625 C 195.756 123.547,196.133 126.219,196.243 126.563 C 196.354 126.906,196.729 129.531,197.077 132.396 C 197.426 135.260,197.808 137.932,197.926 138.333 C 198.045 138.734,198.465 141.594,198.860 144.688 C 199.254 147.781,199.615 150.500,199.661 150.729 C 199.941 152.122,200.260 154.375,200.721 158.229 C 201.008 160.635,201.342 162.932,201.461 163.333 C 201.581 163.734,202.001 166.547,202.395 169.583 C 203.259 176.235,204.283 183.074,204.502 183.646 C 205.888 187.269,210.647 187.984,212.949 184.915 C 213.736 183.865,214.011 183.046,216.038 175.717 C 216.483 174.107,216.945 172.560,217.065 172.280 C 217.184 172.000,217.475 170.974,217.710 170.000 C 217.946 169.026,218.327 167.667,218.556 166.979 C 218.968 165.745,219.835 162.700,221.047 158.229 C 221.389 156.969,221.852 155.375,222.076 154.688 C 222.619 153.018,223.797 148.862,224.688 145.468 C 225.087 143.950,225.507 142.544,225.622 142.343 C 225.736 142.143,226.115 140.826,226.462 139.418 C 226.810 138.009,227.228 136.509,227.391 136.084 C 227.554 135.660,227.987 134.141,228.353 132.709 C 228.719 131.278,229.097 129.965,229.192 129.793 C 229.287 129.620,229.650 128.328,229.997 126.921 C 230.344 125.515,230.720 124.202,230.831 124.005 C 230.942 123.807,231.321 122.448,231.672 120.985 C 232.432 117.813,233.127 116.465,234.180 116.119 C 234.678 115.956,240.508 115.850,253.333 115.772 C 272.464 115.655,272.893 115.635,273.817 114.774 C 274.052 114.555,274.322 114.375,274.417 114.375 C 275.066 114.375,276.078 111.969,276.672 109.010 C 277.012 107.320,277.381 105.750,277.494 105.521 C 277.606 105.292,277.990 103.557,278.348 101.667 C 278.706 99.776,279.075 98.135,279.167 98.021 C 279.260 97.906,279.402 97.367,279.483 96.823 C 279.702 95.351,279.858 95.590,280.363 98.177 C 281.316 103.059,282.326 107.850,282.612 108.854 C 282.776 109.427,283.149 111.161,283.443 112.708 C 283.736 114.255,284.205 116.458,284.484 117.604 C 284.764 118.750,285.229 120.906,285.519 122.396 C 286.184 125.814,287.545 132.265,288.089 134.583 C 288.318 135.557,288.657 137.198,288.843 138.229 C 290.018 144.762,291.221 146.707,293.718 146.117 C 295.576 145.679,296.390 144.123,297.282 139.308 C 297.640 137.380,298.018 135.646,298.123 135.454 C 298.228 135.261,298.604 133.557,298.958 131.667 C 299.312 129.776,299.731 127.807,299.890 127.292 C 300.049 126.776,300.425 125.053,300.726 123.463 C 301.027 121.872,301.403 120.185,301.562 119.713 C 301.720 119.241,302.000 117.964,302.184 116.875 C 302.368 115.786,302.563 114.746,302.617 114.564 C 302.728 114.189,302.319 114.201,335.104 113.653 C 345.073 113.486,355.901 113.250,359.167 113.128 C 365.179 112.903,385.089 112.499,390.156 112.500 C 392.718 112.500,392.917 112.472,392.917 112.109 C 392.917 111.091,393.345 111.117,372.396 110.821 C 350.831 110.515,314.778 109.823,307.813 109.581 C 298.366 109.253,299.282 108.274,295.824 122.396 C 293.767 130.798,293.333 132.283,293.333 130.919 C 293.333 130.576,293.192 129.752,293.019 129.088 C 292.846 128.424,292.383 126.084,291.990 123.888 C 290.598 116.110,289.788 111.754,289.487 110.417 C 289.319 109.672,288.942 107.656,288.649 105.938 C 288.356 104.219,287.974 102.203,287.799 101.458 C 287.625 100.714,287.164 98.323,286.775 96.146 C 283.710 79.007,283.603 78.618,281.617 77.365 C 279.756 76.190,276.903 77.245,276.230 79.357 C 276.099 79.768,275.870 80.385,275.721 80.729 C 275.572 81.073,275.205 82.573,274.907 84.063 C 274.609 85.552,274.230 87.146,274.064 87.604 C 273.899 88.063,273.523 89.609,273.229 91.042 C 272.936 92.474,272.510 94.255,272.285 95.000 C 272.059 95.745,271.542 97.807,271.135 99.583 C 269.844 105.226,269.427 106.971,269.292 107.294 C 268.920 108.184,268.394 108.214,257.611 107.950 C 227.936 107.224,227.954 107.222,225.600 112.396 C 225.496 112.625,225.091 113.938,224.701 115.313 C 224.311 116.688,223.615 119.078,223.154 120.625 C 222.693 122.172,221.885 124.891,221.359 126.667 C 220.832 128.443,220.024 131.161,219.562 132.708 C 219.100 134.255,218.415 136.599,218.040 137.917 C 217.665 139.234,217.158 140.922,216.915 141.667 C 216.434 143.136,215.613 145.924,214.469 149.970 C 214.069 151.385,213.656 152.702,213.553 152.896 C 213.449 153.090,213.162 154.042,212.915 155.010 C 212.668 155.978,212.199 157.615,211.872 158.646 C 211.546 159.677,211.095 161.130,210.870 161.875 L 210.461 163.229 210.434 162.292 C 210.419 161.776,210.309 160.932,210.190 160.417 C 210.071 159.901,209.602 156.714,209.149 153.333 C 208.695 149.953,207.945 144.516,207.483 141.250 C 207.020 137.984,206.275 132.688,205.826 129.479 C 205.377 126.271,204.821 122.333,204.590 120.729 C 203.804 115.276,203.093 110.117,202.318 104.270 C 201.893 101.061,201.488 98.342,201.418 98.228 C 201.348 98.114,201.001 95.630,200.648 92.708 C 200.294 89.786,199.915 87.115,199.806 86.771 C 199.696 86.427,199.322 83.849,198.974 81.042 C 198.626 78.234,198.194 75.188,198.014 74.271 C 197.834 73.354,197.370 70.214,196.982 67.292 C 196.594 64.370,196.167 61.370,196.033 60.625 C 195.898 59.880,195.520 57.255,195.192 54.792 C 194.864 52.328,194.455 49.469,194.283 48.438 C 194.111 47.406,193.792 45.156,193.574 43.438 C 192.957 38.579,191.765 37.027,188.577 36.934 C 187.698 36.908,186.839 36.945,186.667 37.016 M189.947 37.816 C 191.196 38.187,191.968 38.992,192.300 40.270 C 192.425 40.752,192.610 41.427,192.712 41.771 C 192.814 42.115,193.234 45.068,193.646 48.333 C 194.057 51.599,194.479 54.505,194.584 54.792 C 194.688 55.078,195.059 57.656,195.408 60.521 C 195.757 63.385,196.139 66.057,196.257 66.458 C 196.375 66.859,196.792 69.625,197.184 72.604 C 197.576 75.583,197.994 78.536,198.111 79.167 C 198.229 79.797,198.611 82.599,198.960 85.394 C 199.309 88.189,199.635 90.540,199.684 90.619 C 199.833 90.860,200.168 93.225,200.720 97.917 C 201.009 100.380,201.344 102.724,201.465 103.125 C 201.585 103.526,202.004 106.339,202.396 109.375 C 202.787 112.411,203.249 115.740,203.422 116.771 C 203.594 117.802,203.930 120.333,204.167 122.396 C 204.404 124.458,204.694 126.474,204.811 126.875 C 204.928 127.276,205.392 130.417,205.841 133.854 C 206.290 137.292,206.804 140.995,206.982 142.083 C 207.161 143.172,207.535 145.844,207.812 148.021 C 208.090 150.198,208.505 153.201,208.734 154.694 C 208.964 156.187,209.323 158.953,209.533 160.840 C 210.130 166.206,210.386 165.952,212.854 157.540 C 213.247 156.200,213.943 153.839,214.401 152.292 C 214.859 150.745,215.548 148.386,215.931 147.050 C 216.315 145.714,216.822 144.026,217.059 143.300 C 217.295 142.573,217.776 140.995,218.127 139.792 C 218.478 138.589,219.142 136.339,219.603 134.792 C 220.064 133.245,220.812 130.680,221.264 129.092 C 221.716 127.504,222.136 126.125,222.197 126.027 C 222.257 125.928,222.632 124.664,223.028 123.217 C 223.425 121.771,223.816 120.478,223.898 120.346 C 223.980 120.213,224.310 119.085,224.631 117.838 C 224.952 116.591,225.349 115.278,225.513 114.921 C 225.677 114.563,225.965 113.666,226.152 112.926 C 226.565 111.291,226.841 110.747,227.754 109.759 C 228.961 108.453,228.356 108.486,249.375 108.565 C 259.859 108.605,268.625 108.570,268.855 108.487 C 269.719 108.178,270.175 106.881,271.362 101.354 C 271.756 99.521,272.169 97.833,272.281 97.604 C 272.392 97.375,272.776 95.792,273.133 94.086 C 273.490 92.381,273.866 90.834,273.970 90.649 C 274.073 90.464,274.450 88.906,274.808 87.188 C 275.166 85.469,275.532 83.922,275.622 83.750 C 275.713 83.578,275.947 82.688,276.143 81.771 C 276.784 78.773,277.458 77.887,279.321 77.589 C 281.876 77.180,282.875 78.445,283.656 83.076 C 283.941 84.764,284.265 86.427,284.376 86.771 C 284.487 87.115,284.907 89.271,285.310 91.563 C 286.419 97.885,287.463 103.491,287.811 105.000 C 287.982 105.745,288.359 107.714,288.647 109.375 C 288.936 111.036,289.405 113.521,289.689 114.896 C 289.974 116.271,290.397 118.568,290.629 120.000 C 290.861 121.432,291.186 123.167,291.351 123.854 C 291.516 124.542,291.939 126.792,292.292 128.854 C 293.037 133.205,293.022 133.151,293.391 133.010 C 293.828 132.842,294.630 130.303,295.526 126.250 C 295.817 124.932,296.194 123.432,296.363 122.917 C 296.532 122.401,296.961 120.667,297.316 119.063 C 297.670 117.458,298.029 116.052,298.113 115.938 C 298.197 115.823,298.432 114.917,298.635 113.924 C 299.462 109.877,298.425 110.113,314.160 110.393 C 321.210 110.518,335.839 110.761,346.667 110.933 C 357.495 111.105,367.667 111.342,369.271 111.459 C 370.875 111.576,374.250 111.683,376.771 111.695 C 382.757 111.726,390.132 111.992,386.354 112.042 C 362.358 112.356,328.686 112.957,326.042 113.118 C 324.151 113.234,318.198 113.389,312.813 113.464 C 307.427 113.539,302.838 113.666,302.615 113.747 C 302.170 113.908,302.050 114.343,300.635 120.938 C 300.192 123.000,299.445 126.422,298.974 128.542 C 298.198 132.032,297.090 137.099,296.054 141.897 C 295.406 144.897,294.692 145.626,292.668 145.354 C 291.134 145.149,290.838 144.652,290.096 141.042 C 289.825 139.724,289.172 136.630,288.645 134.167 C 287.311 127.929,286.204 122.676,285.221 117.919 C 284.759 115.686,284.325 113.717,284.255 113.544 C 284.186 113.371,283.816 111.682,283.434 109.792 C 281.468 100.061,280.385 95.359,280.003 94.899 C 279.383 94.153,279.184 94.649,278.230 99.318 C 277.826 101.291,277.408 103.119,277.300 103.380 C 277.192 103.641,276.865 105.128,276.573 106.684 C 275.599 111.879,274.770 113.815,273.285 114.365 C 272.911 114.504,272.426 114.713,272.209 114.830 C 271.763 115.069,264.519 115.193,246.458 115.271 C 230.772 115.339,232.853 114.135,229.991 124.792 C 229.545 126.453,229.087 128.000,228.973 128.229 C 228.860 128.458,228.442 129.865,228.044 131.354 C 227.647 132.844,226.934 135.422,226.459 137.083 C 225.983 138.745,225.278 141.265,224.892 142.684 C 224.505 144.103,224.039 145.697,223.856 146.226 C 223.531 147.168,222.694 150.112,221.451 154.688 C 221.109 155.948,220.685 157.401,220.510 157.917 C 220.206 158.809,219.501 161.292,218.114 166.354 C 217.769 167.615,217.304 169.208,217.082 169.896 C 216.590 171.416,215.382 175.641,214.669 178.333 C 212.909 184.985,212.001 186.255,209.017 186.247 C 206.377 186.239,205.049 184.499,204.469 180.286 C 204.297 179.040,203.920 176.333,203.630 174.271 C 203.341 172.208,202.784 168.036,202.393 165.000 C 202.002 161.964,201.589 159.198,201.475 158.854 C 201.362 158.510,200.983 155.839,200.634 152.917 C 200.285 149.995,199.908 147.323,199.797 146.979 C 199.686 146.635,199.264 143.729,198.860 140.521 C 198.456 137.313,198.038 134.359,197.930 133.958 C 197.823 133.557,197.535 131.589,197.291 129.583 C 196.819 125.710,196.458 123.146,195.953 120.104 C 195.781 119.073,195.450 116.542,195.217 114.479 C 194.984 112.417,194.700 110.445,194.587 110.098 C 194.474 109.752,194.051 106.939,193.647 103.848 C 193.244 100.758,192.778 97.432,192.612 96.458 C 192.446 95.484,192.069 92.625,191.773 90.104 C 191.478 87.583,191.151 85.240,191.047 84.896 C 190.853 84.256,190.197 79.323,189.786 75.417 C 189.660 74.214,189.472 72.995,189.369 72.708 C 189.266 72.422,188.894 69.844,188.543 66.979 C 187.364 57.352,187.298 57.317,185.011 65.104 C 184.573 66.594,183.782 69.266,183.253 71.042 C 181.539 76.793,180.823 79.225,180.126 81.667 C 179.749 82.984,179.241 84.672,178.998 85.417 C 178.445 87.106,177.453 90.468,176.661 93.333 C 176.328 94.536,175.871 96.036,175.646 96.667 C 175.420 97.297,175.086 98.422,174.902 99.167 C 174.719 99.911,174.336 101.224,174.051 102.083 C 173.542 103.622,172.532 106.998,171.575 110.360 C 170.054 115.700,171.182 115.469,147.808 115.245 C 137.337 115.145,129.190 115.148,128.805 115.252 C 127.784 115.528,127.314 116.749,126.252 121.875 C 125.884 123.651,125.509 125.198,125.420 125.313 C 125.330 125.427,124.962 126.957,124.601 128.712 C 124.240 130.467,123.855 132.061,123.746 132.254 C 123.637 132.446,123.308 133.776,123.016 135.208 C 122.562 137.429,122.257 138.706,121.947 139.688 C 121.911 139.802,121.658 140.865,121.385 142.048 C 120.652 145.228,119.601 146.364,117.543 146.199 C 115.482 146.033,114.726 145.089,114.163 141.978 C 113.936 140.718,113.558 138.844,113.325 137.813 C 113.091 136.781,112.624 134.344,112.285 132.396 C 111.415 127.384,110.260 121.181,109.894 119.553 C 109.723 118.792,109.295 116.498,108.943 114.456 C 108.590 112.414,108.263 110.681,108.216 110.604 C 108.169 110.527,107.757 108.414,107.301 105.909 C 104.537 90.722,104.653 91.250,104.077 91.250 C 103.561 91.250,103.080 92.645,102.173 96.769 C 101.871 98.142,101.501 99.596,101.351 99.998 C 101.201 100.400,100.835 101.866,100.537 103.255 C 100.238 104.645,99.815 106.379,99.596 107.109 C 99.376 107.840,99.043 109.165,98.855 110.053 C 98.054 113.835,98.290 113.795,79.271 113.331 C 71.863 113.150,32.119 112.391,18.333 112.166 C 13.234 112.083,9.161 111.983,9.280 111.942 C 9.678 111.808,49.028 110.950,69.792 110.623 C 78.328 110.488,87.560 110.316,90.306 110.241 L 95.300 110.104 95.475 109.167 C 95.571 108.651,95.795 107.667,95.973 106.979 C 96.150 106.292,96.659 104.042,97.103 101.979 C 98.146 97.127,99.326 91.702,100.388 86.875 C 100.855 84.755,101.389 82.318,101.577 81.458 C 102.147 78.842,102.695 78.257,104.553 78.283 C 106.324 78.309,106.728 79.011,107.696 83.750 C 108.036 85.411,108.702 88.599,109.176 90.833 C 109.651 93.068,110.396 96.583,110.833 98.646 C 111.270 100.708,112.066 104.458,112.603 106.979 C 113.139 109.500,113.892 113.095,114.275 114.969 C 114.658 116.842,115.031 118.530,115.104 118.719 C 115.178 118.908,115.566 120.750,115.967 122.813 C 116.828 127.240,117.435 129.167,117.968 129.167 C 118.219 129.167,118.333 129.003,118.333 128.643 C 118.333 128.355,118.426 127.957,118.538 127.758 C 118.651 127.559,119.077 125.724,119.485 123.680 C 119.893 121.637,120.313 119.808,120.418 119.618 C 120.522 119.427,120.850 117.979,121.145 116.400 C 121.695 113.459,122.611 110.683,123.273 109.952 C 124.315 108.800,123.214 108.859,144.747 108.797 L 164.598 108.740 164.803 108.172 C 164.916 107.860,165.097 107.417,165.204 107.188 C 165.312 106.958,165.725 105.552,166.122 104.063 C 167.534 98.764,168.538 95.175,168.664 94.971 C 168.734 94.857,169.162 93.434,169.615 91.809 C 170.067 90.184,170.815 87.542,171.276 85.938 C 171.737 84.333,172.475 81.755,172.916 80.208 C 173.358 78.661,174.097 76.083,174.560 74.479 C 175.022 72.875,175.828 70.063,176.350 68.229 C 176.873 66.396,177.678 63.583,178.140 61.979 C 178.602 60.375,179.213 58.219,179.499 57.188 C 179.784 56.156,180.249 54.563,180.532 53.646 C 181.090 51.835,182.085 48.324,183.247 44.063 C 184.843 38.211,186.398 36.762,189.947 37.816 " stroke="none" fill="#fcfcfc" fill-rule="evenodd"></path><path id="path1" d="M187.109 37.709 C 185.396 38.113,184.442 39.682,183.247 44.063 C 182.085 48.324,181.090 51.835,180.532 53.646 C 180.249 54.563,179.784 56.156,179.499 57.188 C 179.213 58.219,178.602 60.375,178.140 61.979 C 177.678 63.583,176.873 66.396,176.350 68.229 C 175.828 70.063,175.022 72.875,174.560 74.479 C 174.097 76.083,173.358 78.661,172.916 80.208 C 172.475 81.755,171.737 84.333,171.276 85.938 C 170.815 87.542,170.067 90.184,169.615 91.809 C 169.162 93.434,168.734 94.857,168.664 94.971 C 168.538 95.175,167.534 98.764,166.122 104.063 C 165.725 105.552,165.312 106.958,165.204 107.188 C 165.097 107.417,164.916 107.860,164.803 108.172 L 164.598 108.740 144.747 108.797 C 123.214 108.859,124.315 108.800,123.273 109.952 C 122.611 110.683,121.695 113.459,121.145 116.400 C 120.850 117.979,120.522 119.427,120.418 119.618 C 120.313 119.808,119.893 121.637,119.485 123.680 C 119.077 125.724,118.651 127.559,118.538 127.758 C 118.426 127.957,118.333 128.355,118.333 128.643 C 118.333 129.003,118.219 129.167,117.968 129.167 C 117.435 129.167,116.828 127.240,115.967 122.813 C 115.566 120.750,115.178 118.908,115.104 118.719 C 115.031 118.530,114.658 116.842,114.275 114.969 C 113.892 113.095,113.139 109.500,112.603 106.979 C 112.066 104.458,111.270 100.708,110.833 98.646 C 110.396 96.583,109.651 93.068,109.176 90.833 C 108.702 88.599,108.036 85.411,107.696 83.750 C 106.728 79.011,106.324 78.309,104.553 78.283 C 102.695 78.257,102.147 78.842,101.577 81.458 C 101.389 82.318,100.855 84.755,100.388 86.875 C 99.326 91.702,98.146 97.127,97.103 101.979 C 96.659 104.042,96.150 106.292,95.973 106.979 C 95.795 107.667,95.571 108.651,95.475 109.167 L 95.300 110.104 90.306 110.241 C 87.560 110.316,78.328 110.488,69.792 110.623 C 49.028 110.950,9.678 111.808,9.280 111.942 C 9.161 111.983,13.234 112.083,18.333 112.166 C 32.119 112.391,71.863 113.150,79.271 113.331 C 98.290 113.795,98.054 113.835,98.855 110.053 C 99.043 109.165,99.376 107.840,99.596 107.109 C 99.815 106.379,100.238 104.645,100.537 103.255 C 100.835 101.866,101.201 100.400,101.351 99.998 C 101.501 99.596,101.871 98.142,102.173 96.769 C 103.080 92.645,103.561 91.250,104.077 91.250 C 104.653 91.250,104.537 90.722,107.301 105.909 C 107.757 108.414,108.169 110.527,108.216 110.604 C 108.263 110.681,108.590 112.414,108.943 114.456 C 109.295 116.498,109.723 118.792,109.894 119.553 C 110.260 121.181,111.415 127.384,112.285 132.396 C 112.624 134.344,113.091 136.781,113.325 137.813 C 113.558 138.844,113.936 140.718,114.163 141.978 C 114.726 145.089,115.482 146.033,117.543 146.199 C 119.601 146.364,120.652 145.228,121.385 142.048 C 121.658 140.865,121.911 139.802,121.947 139.688 C 122.257 138.706,122.562 137.429,123.016 135.208 C 123.308 133.776,123.637 132.446,123.746 132.254 C 123.855 132.061,124.240 130.467,124.601 128.712 C 124.962 126.957,125.330 125.427,125.420 125.313 C 125.509 125.198,125.884 123.651,126.252 121.875 C 127.314 116.749,127.784 115.528,128.805 115.252 C 129.190 115.148,137.337 115.145,147.808 115.245 C 171.182 115.469,170.054 115.700,171.575 110.360 C 172.532 106.998,173.542 103.622,174.051 102.083 C 174.336 101.224,174.719 99.911,174.902 99.167 C 175.086 98.422,175.420 97.297,175.646 96.667 C 175.871 96.036,176.328 94.536,176.661 93.333 C 177.453 90.468,178.445 87.106,178.998 85.417 C 179.241 84.672,179.749 82.984,180.126 81.667 C 180.823 79.225,181.539 76.793,183.253 71.042 C 183.782 69.266,184.573 66.594,185.011 65.104 C 187.298 57.317,187.364 57.352,188.543 66.979 C 188.894 69.844,189.266 72.422,189.369 72.708 C 189.472 72.995,189.660 74.214,189.786 75.417 C 190.197 79.323,190.853 84.256,191.047 84.896 C 191.151 85.240,191.478 87.583,191.773 90.104 C 192.069 92.625,192.446 95.484,192.612 96.458 C 192.778 97.432,193.244 100.758,193.647 103.848 C 194.051 106.939,194.474 109.752,194.587 110.098 C 194.700 110.445,194.984 112.417,195.217 114.479 C 195.450 116.542,195.781 119.073,195.953 120.104 C 196.458 123.146,196.819 125.710,197.291 129.583 C 197.535 131.589,197.823 133.557,197.930 133.958 C 198.038 134.359,198.456 137.313,198.860 140.521 C 199.264 143.729,199.686 146.635,199.797 146.979 C 199.908 147.323,200.285 149.995,200.634 152.917 C 200.983 155.839,201.362 158.510,201.475 158.854 C 201.589 159.198,202.002 161.964,202.393 165.000 C 202.784 168.036,203.341 172.208,203.630 174.271 C 203.920 176.333,204.297 179.040,204.469 180.286 C 205.049 184.499,206.377 186.239,209.017 186.247 C 212.001 186.255,212.909 184.985,214.669 178.333 C 215.382 175.641,216.590 171.416,217.082 169.896 C 217.304 169.208,217.769 167.615,218.114 166.354 C 219.501 161.292,220.206 158.809,220.510 157.917 C 220.685 157.401,221.109 155.948,221.451 154.688 C 222.694 150.112,223.531 147.168,223.856 146.226 C 224.039 145.697,224.505 144.103,224.892 142.684 C 225.278 141.265,225.983 138.745,226.459 137.083 C 226.934 135.422,227.647 132.844,228.044 131.354 C 228.442 129.865,228.860 128.458,228.973 128.229 C 229.087 128.000,229.545 126.453,229.991 124.792 C 232.853 114.135,230.772 115.339,246.458 115.271 C 264.519 115.193,271.763 115.069,272.209 114.830 C 272.426 114.713,272.911 114.504,273.285 114.365 C 274.770 113.815,275.599 111.879,276.573 106.684 C 276.865 105.128,277.192 103.641,277.300 103.380 C 277.408 103.119,277.826 101.291,278.230 99.318 C 279.184 94.649,279.383 94.153,280.003 94.899 C 280.385 95.359,281.468 100.061,283.434 109.792 C 283.816 111.682,284.186 113.371,284.255 113.544 C 284.325 113.717,284.759 115.686,285.221 117.919 C 286.204 122.676,287.311 127.929,288.645 134.167 C 289.172 136.630,289.825 139.724,290.096 141.042 C 290.838 144.652,291.134 145.149,292.668 145.354 C 294.692 145.626,295.406 144.897,296.054 141.897 C 297.090 137.099,298.198 132.032,298.974 128.542 C 299.445 126.422,300.192 123.000,300.635 120.938 C 302.050 114.343,302.170 113.908,302.615 113.747 C 302.838 113.666,307.427 113.539,312.813 113.464 C 318.198 113.389,324.151 113.234,326.042 113.118 C 328.686 112.957,362.358 112.356,386.354 112.042 C 390.132 111.992,382.757 111.726,376.771 111.695 C 374.250 111.683,370.875 111.576,369.271 111.459 C 367.667 111.342,357.495 111.105,346.667 110.933 C 335.839 110.761,321.210 110.518,314.160 110.393 C 298.425 110.113,299.462 109.877,298.635 113.924 C 298.432 114.917,298.197 115.823,298.113 115.938 C 298.029 116.052,297.670 117.458,297.316 119.063 C 296.961 120.667,296.532 122.401,296.363 122.917 C 296.194 123.432,295.817 124.932,295.526 126.250 C 294.630 130.303,293.828 132.842,293.391 133.010 C 293.022 133.151,293.037 133.205,292.292 128.854 C 291.939 126.792,291.516 124.542,291.351 123.854 C 291.186 123.167,290.861 121.432,290.629 120.000 C 290.397 118.568,289.974 116.271,289.689 114.896 C 289.405 113.521,288.936 111.036,288.647 109.375 C 288.359 107.714,287.982 105.745,287.811 105.000 C 287.463 103.491,286.419 97.885,285.310 91.563 C 284.907 89.271,284.487 87.115,284.376 86.771 C 284.265 86.427,283.941 84.764,283.656 83.076 C 282.875 78.445,281.876 77.180,279.321 77.589 C 277.458 77.887,276.784 78.773,276.143 81.771 C 275.947 82.688,275.713 83.578,275.622 83.750 C 275.532 83.922,275.166 85.469,274.808 87.188 C 274.450 88.906,274.073 90.464,273.970 90.649 C 273.866 90.834,273.490 92.381,273.133 94.086 C 272.776 95.792,272.392 97.375,272.281 97.604 C 272.169 97.833,271.756 99.521,271.362 101.354 C 270.175 106.881,269.719 108.178,268.855 108.487 C 268.625 108.570,259.859 108.605,249.375 108.565 C 228.356 108.486,228.961 108.453,227.754 109.759 C 226.841 110.747,226.565 111.291,226.152 112.926 C 225.965 113.666,225.677 114.563,225.513 114.921 C 225.349 115.278,224.952 116.591,224.631 117.838 C 224.310 119.085,223.980 120.213,223.898 120.346 C 223.816 120.478,223.425 121.771,223.028 123.217 C 222.632 124.664,222.257 125.928,222.197 126.027 C 222.136 126.125,221.716 127.504,221.264 129.092 C 220.812 130.680,220.064 133.245,219.603 134.792 C 219.142 136.339,218.478 138.589,218.127 139.792 C 217.776 140.995,217.295 142.573,217.059 143.300 C 216.822 144.026,216.315 145.714,215.931 147.050 C 215.548 148.386,214.859 150.745,214.401 152.292 C 213.943 153.839,213.247 156.200,212.854 157.540 C 210.386 165.952,210.130 166.206,209.533 160.840 C 209.323 158.953,208.964 156.187,208.734 154.694 C 208.505 153.201,208.090 150.198,207.812 148.021 C 207.535 145.844,207.161 143.172,206.982 142.083 C 206.804 140.995,206.290 137.292,205.841 133.854 C 205.392 130.417,204.928 127.276,204.811 126.875 C 204.694 126.474,204.404 124.458,204.167 122.396 C 203.930 120.333,203.594 117.802,203.422 116.771 C 203.249 115.740,202.787 112.411,202.396 109.375 C 202.004 106.339,201.585 103.526,201.465 103.125 C 201.344 102.724,201.009 100.380,200.720 97.917 C 200.168 93.225,199.833 90.860,199.684 90.619 C 199.635 90.540,199.309 88.189,198.960 85.394 C 198.611 82.599,198.229 79.797,198.111 79.167 C 197.994 78.536,197.576 75.583,197.184 72.604 C 196.792 69.625,196.375 66.859,196.257 66.458 C 196.139 66.057,195.757 63.385,195.408 60.521 C 195.059 57.656,194.688 55.078,194.584 54.792 C 194.479 54.505,194.057 51.599,193.646 48.333 C 193.234 45.068,192.814 42.115,192.712 41.771 C 192.610 41.427,192.425 40.752,192.300 40.270 C 191.755 38.173,189.616 37.117,187.109 37.709 " stroke="none" fill="#1c2cc4" fill-rule="evenodd"></path></g></svg>