<svg id="visual" viewBox="0 0 960 200" width="960" height="200" xmlns="http://www.w3.org/2000/svg" xmlns:xlink="http://www.w3.org/1999/xlink" version="1.1"><path d="M0 23L16 21.7C32 20.3 64 17.7 96 19C128 20.3 160 25.7 192 25.3C224 25 256 19 288 18.3C320 17.7 352 22.3 384 25C416 27.7 448 28.3 480 26.3C512 24.3 544 19.7 576 16.7C608 13.7 640 12.3 672 11.7C704 11 736 11 768 12C800 13 832 15 864 16.3C896 17.7 928 18.3 944 18.7L960 19L960 0L944 0C928 0 896 0 864 0C832 0 800 0 768 0C736 0 704 0 672 0C640 0 608 0 576 0C544 0 512 0 480 0C448 0 416 0 384 0C352 0 320 0 288 0C256 0 224 0 192 0C160 0 128 0 96 0C64 0 32 0 16 0L0 0Z" fill="#000000"></path><path d="M0 53L16 54C32 55 64 57 96 58.3C128 59.7 160 60.3 192 58.3C224 56.3 256 51.7 288 50C320 48.3 352 49.7 384 51.7C416 53.7 448 56.3 480 55.7C512 55 544 51 576 47C608 43 640 39 672 39C704 39 736 43 768 48C800 53 832 59 864 61C896 63 928 61 944 60L960 59L960 17L944 16.7C928 16.3 896 15.7 864 14.3C832 13 800 11 768 10C736 9 704 9 672 9.7C640 10.3 608 11.7 576 14.7C544 17.7 512 22.3 480 24.3C448 26.3 416 25.7 384 23C352 20.3 320 15.7 288 16.3C256 17 224 23 192 23.3C160 23.7 128 18.3 96 17C64 15.7 32 18.3 16 19.7L0 21Z" fill="#303030"></path><path d="M0 71L16 71C32 71 64 71 96 72.3C128 73.7 160 76.3 192 74.3C224 72.3 256 65.7 288 65.7C320 65.7 352 72.3 384 76C416 79.7 448 80.3 480 78C512 75.7 544 70.3 576 66.7C608 63 640 61 672 62.3C704 63.7 736 68.3 768 72.3C800 76.3 832 79.7 864 82C896 84.3 928 85.7 944 86.3L960 87L960 57L944 58C928 59 896 61 864 59C832 57 800 51 768 46C736 41 704 37 672 37C640 37 608 41 576 45C544 49 512 53 480 53.7C448 54.3 416 51.7 384 49.7C352 47.7 320 46.3 288 48C256 49.7 224 54.3 192 56.3C160 58.3 128 57.7 96 56.3C64 55 32 53 16 52L0 51Z" fill="#5e5e5e"></path><path d="M0 93L16 94.3C32 95.7 64 98.3 96 100.3C128 102.3 160 103.7 192 103C224 102.3 256 99.7 288 100C320 100.3 352 103.7 384 105.7C416 107.7 448 108.3 480 105.7C512 103 544 97 576 94.7C608 92.3 640 93.7 672 95C704 96.3 736 97.7 768 99.7C800 101.7 832 104.3 864 105.3C896 106.3 928 105.7 944 105.3L960 105L960 85L944 84.3C928 83.7 896 82.3 864 80C832 77.7 800 74.3 768 70.3C736 66.3 704 61.7 672 60.3C640 59 608 61 576 64.7C544 68.3 512 73.7 480 76C448 78.3 416 77.7 384 74C352 70.3 320 63.7 288 63.7C256 63.7 224 70.3 192 72.3C160 74.3 128 71.7 96 70.3C64 69 32 69 16 69L0 69Z" fill="#919191"></path><path d="M0 149L16 147.7C32 146.3 64 143.7 96 143.3C128 143 160 145 192 148C224 151 256 155 288 160C320 165 352 171 384 170.3C416 169.7 448 162.3 480 154C512 145.7 544 136.3 576 132.3C608 128.3 640 129.7 672 130C704 130.3 736 129.7 768 133C800 136.3 832 143.7 864 145.3C896 147 928 143 944 141L960 139L960 103L944 103.3C928 103.7 896 104.3 864 103.3C832 102.3 800 99.7 768 97.7C736 95.7 704 94.3 672 93C640 91.7 608 90.3 576 92.7C544 95 512 101 480 103.7C448 106.3 416 105.7 384 103.7C352 101.7 320 98.3 288 98C256 97.7 224 100.3 192 101C160 101.7 128 100.3 96 98.3C64 96.3 32 93.7 16 92.3L0 91Z" fill="#c6c6c6"></path><path d="M0 201L16 201C32 201 64 201 96 201C128 201 160 201 192 201C224 201 256 201 288 201C320 201 352 201 384 201C416 201 448 201 480 201C512 201 544 201 576 201C608 201 640 201 672 201C704 201 736 201 768 201C800 201 832 201 864 201C896 201 928 201 944 201L960 201L960 137L944 139C928 141 896 145 864 143.3C832 141.7 800 134.3 768 131C736 127.7 704 128.3 672 128C640 127.7 608 126.3 576 130.3C544 134.3 512 143.7 480 152C448 160.3 416 167.7 384 168.3C352 169 320 163 288 158C256 153 224 149 192 146C160 143 128 141 96 141.3C64 141.7 32 144.3 16 145.7L0 147Z" fill="#ffffff"></path></svg>