<svg id="visual" viewBox="0 0 1000 200" width="1000" height="200" xmlns="http://www.w3.org/2000/svg" xmlns:xlink="http://www.w3.org/1999/xlink" version="1.1"><path d="M0 31L27.8 32.3C55.7 33.7 111.3 36.3 166.8 32.3C222.3 28.3 277.7 17.7 333.2 14C388.7 10.3 444.3 13.7 500 18.7C555.7 23.7 611.3 30.3 666.8 35.3C722.3 40.3 777.7 43.7 833.2 42C888.7 40.3 944.3 33.7 972.2 30.3L1000 27L1000 0L972.2 0C944.3 0 888.7 0 833.2 0C777.7 0 722.3 0 666.8 0C611.3 0 555.7 0 500 0C444.3 0 388.7 0 333.2 0C277.7 0 222.3 0 166.8 0C111.3 0 55.7 0 27.8 0L0 0Z" fill="#666666"></path><path d="M0 101L27.8 96.7C55.7 92.3 111.3 83.7 166.8 81C222.3 78.3 277.7 81.7 333.2 75.7C388.7 69.7 444.3 54.3 500 48.3C555.7 42.3 611.3 45.7 666.8 59C722.3 72.3 777.7 95.7 833.2 104C888.7 112.3 944.3 105.7 972.2 102.3L1000 99L1000 25L972.2 28.3C944.3 31.7 888.7 38.3 833.2 40C777.7 41.7 722.3 38.3 666.8 33.3C611.3 28.3 555.7 21.7 500 16.7C444.3 11.7 388.7 8.3 333.2 12C277.7 15.7 222.3 26.3 166.8 30.3C111.3 34.3 55.7 31.7 27.8 30.3L0 29Z" fill="#7e6b6a"></path><path d="M0 141L27.8 139.3C55.7 137.7 111.3 134.3 166.8 130C222.3 125.7 277.7 120.3 333.2 120.7C388.7 121 444.3 127 500 130C555.7 133 611.3 133 666.8 135.3C722.3 137.7 777.7 142.3 833.2 137C888.7 131.7 944.3 116.3 972.2 108.7L1000 101L1000 97L972.2 100.3C944.3 103.7 888.7 110.3 833.2 102C777.7 93.7 722.3 70.3 666.8 57C611.3 43.7 555.7 40.3 500 46.3C444.3 52.3 388.7 67.7 333.2 73.7C277.7 79.7 222.3 76.3 166.8 79C111.3 81.7 55.7 90.3 27.8 94.7L0 99Z" fill="#95706f"></path><path d="M0 149L27.8 151C55.7 153 111.3 157 166.8 153.7C222.3 150.3 277.7 139.7 333.2 140.3C388.7 141 444.3 153 500 155.3C555.7 157.7 611.3 150.3 666.8 149.3C722.3 148.3 777.7 153.7 833.2 149.7C888.7 145.7 944.3 132.3 972.2 125.7L1000 119L1000 99L972.2 106.7C944.3 114.3 888.7 129.7 833.2 135C777.7 140.3 722.3 135.7 666.8 133.3C611.3 131 555.7 131 500 128C444.3 125 388.7 119 333.2 118.7C277.7 118.3 222.3 123.7 166.8 128C111.3 132.3 55.7 135.7 27.8 137.3L0 139Z" fill="#ac7573"></path><path d="M0 163L27.8 166.7C55.7 170.3 111.3 177.7 166.8 177.3C222.3 177 277.7 169 333.2 167C388.7 165 444.3 169 500 170C555.7 171 611.3 169 666.8 167.3C722.3 165.7 777.7 164.3 833.2 158C888.7 151.7 944.3 140.3 972.2 134.7L1000 129L1000 117L972.2 123.7C944.3 130.3 888.7 143.7 833.2 147.7C777.7 151.7 722.3 146.3 666.8 147.3C611.3 148.3 555.7 155.7 500 153.3C444.3 151 388.7 139 333.2 138.3C277.7 137.7 222.3 148.3 166.8 151.7C111.3 155 55.7 151 27.8 149L0 147Z" fill="#c37977"></path><path d="M0 177L27.8 179.7C55.7 182.3 111.3 187.7 166.8 189C222.3 190.3 277.7 187.7 333.2 188.7C388.7 189.7 444.3 194.3 500 194.3C555.7 194.3 611.3 189.7 666.8 185.7C722.3 181.7 777.7 178.3 833.2 177.3C888.7 176.3 944.3 177.7 972.2 178.3L1000 179L1000 127L972.2 132.7C944.3 138.3 888.7 149.7 833.2 156C777.7 162.3 722.3 163.7 666.8 165.3C611.3 167 555.7 169 500 168C444.3 167 388.7 163 333.2 165C277.7 167 222.3 175 166.8 175.3C111.3 175.7 55.7 168.3 27.8 164.7L0 161Z" fill="#d97d7c"></path><path d="M0 201L27.8 201C55.7 201 111.3 201 166.8 201C222.3 201 277.7 201 333.2 201C388.7 201 444.3 201 500 201C555.7 201 611.3 201 666.8 201C722.3 201 777.7 201 833.2 201C888.7 201 944.3 201 972.2 201L1000 201L1000 177L972.2 176.3C944.3 175.7 888.7 174.3 833.2 175.3C777.7 176.3 722.3 179.7 666.8 183.7C611.3 187.7 555.7 192.3 500 192.3C444.3 192.3 388.7 187.7 333.2 186.7C277.7 185.7 222.3 188.3 166.8 187C111.3 185.7 55.7 180.3 27.8 177.7L0 175Z" fill="#f08080"></path></svg>