<svg id="visual" viewBox="0 0 1000 200" width="1000" height="200" xmlns="http://www.w3.org/2000/svg" xmlns:xlink="http://www.w3.org/1999/xlink" version="1.1"><path d="M0 9L27.8 11.7C55.7 14.3 111.3 19.7 166.8 18.7C222.3 17.7 277.7 10.3 333.2 9C388.7 7.7 444.3 12.3 500 15C555.7 17.7 611.3 18.3 666.8 17.7C722.3 17 777.7 15 833.2 17C888.7 19 944.3 25 972.2 28L1000 31L1000 0L972.2 0C944.3 0 888.7 0 833.2 0C777.7 0 722.3 0 666.8 0C611.3 0 555.7 0 500 0C444.3 0 388.7 0 333.2 0C277.7 0 222.3 0 166.8 0C111.3 0 55.7 0 27.8 0L0 0Z" fill="#f08080"></path><path d="M0 19L27.8 27.3C55.7 35.7 111.3 52.3 166.8 58C222.3 63.7 277.7 58.3 333.2 51.7C388.7 45 444.3 37 500 36C555.7 35 611.3 41 666.8 43.3C722.3 45.7 777.7 44.3 833.2 49.7C888.7 55 944.3 67 972.2 73L1000 79L1000 29L972.2 26C944.3 23 888.7 17 833.2 15C777.7 13 722.3 15 666.8 15.7C611.3 16.3 555.7 15.7 500 13C444.3 10.3 388.7 5.7 333.2 7C277.7 8.3 222.3 15.7 166.8 16.7C111.3 17.7 55.7 12.3 27.8 9.7L0 7Z" fill="#f2809a"></path><path d="M0 43L27.8 48.7C55.7 54.3 111.3 65.7 166.8 69.7C222.3 73.7 277.7 70.3 333.2 62.3C388.7 54.3 444.3 41.7 500 38.3C555.7 35 611.3 41 666.8 46C722.3 51 777.7 55 833.2 62.7C888.7 70.3 944.3 81.7 972.2 87.3L1000 93L1000 77L972.2 71C944.3 65 888.7 53 833.2 47.7C777.7 42.3 722.3 43.7 666.8 41.3C611.3 39 555.7 33 500 34C444.3 35 388.7 43 333.2 49.7C277.7 56.3 222.3 61.7 166.8 56C111.3 50.3 55.7 33.7 27.8 25.3L0 17Z" fill="#ed83b4"></path><path d="M0 77L27.8 80.3C55.7 83.7 111.3 90.3 166.8 93C222.3 95.7 277.7 94.3 333.2 87C388.7 79.7 444.3 66.3 500 61.7C555.7 57 611.3 61 666.8 63.3C722.3 65.7 777.7 66.3 833.2 74.3C888.7 82.3 944.3 97.7 972.2 105.3L1000 113L1000 91L972.2 85.3C944.3 79.7 888.7 68.3 833.2 60.7C777.7 53 722.3 49 666.8 44C611.3 39 555.7 33 500 36.3C444.3 39.7 388.7 52.3 333.2 60.3C277.7 68.3 222.3 71.7 166.8 67.7C111.3 63.7 55.7 52.3 27.8 46.7L0 41Z" fill="#e08bcd"></path><path d="M0 107L27.8 111.7C55.7 116.3 111.3 125.7 166.8 124.7C222.3 123.7 277.7 112.3 333.2 103C388.7 93.7 444.3 86.3 500 82.3C555.7 78.3 611.3 77.7 666.8 77.3C722.3 77 777.7 77 833.2 83.7C888.7 90.3 944.3 103.7 972.2 110.3L1000 117L1000 111L972.2 103.3C944.3 95.7 888.7 80.3 833.2 72.3C777.7 64.3 722.3 63.7 666.8 61.3C611.3 59 555.7 55 500 59.7C444.3 64.3 388.7 77.7 333.2 85C277.7 92.3 222.3 93.7 166.8 91C111.3 88.3 55.7 81.7 27.8 78.3L0 75Z" fill="#cc95e3"></path><path d="M0 173L27.8 174C55.7 175 111.3 177 166.8 175.3C222.3 173.7 277.7 168.3 333.2 170.7C388.7 173 444.3 183 500 183.3C555.7 183.7 611.3 174.3 666.8 173C722.3 171.7 777.7 178.3 833.2 177.7C888.7 177 944.3 169 972.2 165L1000 161L1000 115L972.2 108.3C944.3 101.7 888.7 88.3 833.2 81.7C777.7 75 722.3 75 666.8 75.3C611.3 75.7 555.7 76.3 500 80.3C444.3 84.3 388.7 91.7 333.2 101C277.7 110.3 222.3 121.7 166.8 122.7C111.3 123.7 55.7 114.3 27.8 109.7L0 105Z" fill="#b0a1f4"></path><path d="M0 201L27.8 201C55.7 201 111.3 201 166.8 201C222.3 201 277.7 201 333.2 201C388.7 201 444.3 201 500 201C555.7 201 611.3 201 666.8 201C722.3 201 777.7 201 833.2 201C888.7 201 944.3 201 972.2 201L1000 201L1000 159L972.2 163C944.3 167 888.7 175 833.2 175.7C777.7 176.3 722.3 169.7 666.8 171C611.3 172.3 555.7 181.7 500 181.3C444.3 181 388.7 171 333.2 168.7C277.7 166.3 222.3 171.7 166.8 173.3C111.3 175 55.7 173 27.8 172L0 171Z" fill="#8eacff"></path></svg>