<svg id="visual" viewBox="0 0 1000 200" width="1000" height="200" xmlns="http://www.w3.org/2000/svg" xmlns:xlink="http://www.w3.org/1999/xlink" version="1.1"><path d="M0 35L27.8 33C55.7 31 111.3 27 166.8 21.2C222.3 15.3 277.7 7.7 333.2 8C388.7 8.3 444.3 16.7 500 17.8C555.7 19 611.3 13 666.8 13.7C722.3 14.3 777.7 21.7 833.2 26.3C888.7 31 944.3 33 972.2 34L1000 35L1000 0L972.2 0C944.3 0 888.7 0 833.2 0C777.7 0 722.3 0 666.8 0C611.3 0 555.7 0 500 0C444.3 0 388.7 0 333.2 0C277.7 0 222.3 0 166.8 0C111.3 0 55.7 0 27.8 0L0 0Z" fill="#1929c7"></path><path d="M0 53L27.8 50C55.7 47 111.3 41 166.8 32.7C222.3 24.3 277.7 13.7 333.2 16.3C388.7 19 444.3 35 500 42.3C555.7 49.7 611.3 48.3 666.8 50.7C722.3 53 777.7 59 833.2 57.7C888.7 56.3 944.3 47.7 972.2 43.3L1000 39L1000 33L972.2 32C944.3 31 888.7 29 833.2 24.3C777.7 19.7 722.3 12.3 666.8 11.7C611.3 11 555.7 17 500 16.2C444.3 15.3 388.7 7.7 333.2 7.3C277.7 7 222.3 14 166.8 19.5C111.3 25 55.7 29 27.8 31L0 33Z" fill="#3d34b7"></path><path d="M0 65L27.8 63.3C55.7 61.7 111.3 58.3 166.8 51C222.3 43.7 277.7 32.3 333.2 32.3C388.7 32.3 444.3 43.7 500 48.3C555.7 53 611.3 51 666.8 55.7C722.3 60.3 777.7 71.7 833.2 71.3C888.7 71 944.3 59 972.2 53L1000 47L1000 37L972.2 41.3C944.3 45.7 888.7 54.3 833.2 55.7C777.7 57 722.3 51 666.8 48.7C611.3 46.3 555.7 47.7 500 40.3C444.3 33 388.7 17 333.2 14.3C277.7 11.7 222.3 22.3 166.8 30.7C111.3 39 55.7 45 27.8 48L0 51Z" fill="#4e3fa7"></path><path d="M0 89L27.8 85C55.7 81 111.3 73 166.8 66C222.3 59 277.7 53 333.2 56.3C388.7 59.7 444.3 72.3 500 73.3C555.7 74.3 611.3 63.7 666.8 64C722.3 64.3 777.7 75.7 833.2 79.3C888.7 83 944.3 79 972.2 77L1000 75L1000 45L972.2 51C944.3 57 888.7 69 833.2 69.3C777.7 69.7 722.3 58.3 666.8 53.7C611.3 49 555.7 51 500 46.3C444.3 41.7 388.7 30.3 333.2 30.3C277.7 30.3 222.3 41.7 166.8 49C111.3 56.3 55.7 59.7 27.8 61.3L0 63Z" fill="#594997"></path><path d="M0 119L27.8 114C55.7 109 111.3 99 166.8 102C222.3 105 277.7 121 333.2 121C388.7 121 444.3 105 500 99.7C555.7 94.3 611.3 99.7 666.8 106.3C722.3 113 777.7 121 833.2 117C888.7 113 944.3 97 972.2 89L1000 81L1000 73L972.2 75C944.3 77 888.7 81 833.2 77.3C777.7 73.7 722.3 62.3 666.8 62C611.3 61.7 555.7 72.3 500 71.3C444.3 70.3 388.7 57.7 333.2 54.3C277.7 51 222.3 57 166.8 64C111.3 71 55.7 79 27.8 83L0 87Z" fill="#605387"></path><path d="M0 183L27.8 183.3C55.7 183.7 111.3 184.3 166.8 182C222.3 179.7 277.7 174.3 333.2 171.3C388.7 168.3 444.3 167.7 500 164.7C555.7 161.7 611.3 156.3 666.8 155.7C722.3 155 777.7 159 833.2 162C888.7 165 944.3 167 972.2 168L1000 169L1000 79L972.2 87C944.3 95 888.7 111 833.2 115C777.7 119 722.3 111 666.8 104.3C611.3 97.7 555.7 92.3 500 97.7C444.3 103 388.7 119 333.2 119C277.7 119 222.3 103 166.8 100C111.3 97 55.7 107 27.8 112L0 117Z" fill="#645d77"></path><path d="M0 201L27.8 201C55.7 201 111.3 201 166.8 201C222.3 201 277.7 201 333.2 201C388.7 201 444.3 201 500 201C555.7 201 611.3 201 666.8 201C722.3 201 777.7 201 833.2 201C888.7 201 944.3 201 972.2 201L1000 201L1000 167L972.2 166C944.3 165 888.7 163 833.2 160C777.7 157 722.3 153 666.8 153.7C611.3 154.3 555.7 159.7 500 162.7C444.3 165.7 388.7 166.3 333.2 169.3C277.7 172.3 222.3 177.7 166.8 180C111.3 182.3 55.7 181.7 27.8 181.3L0 181Z" fill="#666666"></path></svg>