<svg id="visual" viewBox="0 0 960 540" width="960" height="540" xmlns="http://www.w3.org/2000/svg" xmlns:xlink="http://www.w3.org/1999/xlink" version="1.1"><rect width="960" height="540" fill="#001122"></rect><g><g transform="translate(188 439)"><path d="M0 -72.8L63.1 -36.4L63.1 36.4L0 72.8L-63.1 36.4L-63.1 -36.4Z" fill="#1929C7"></path></g><g transform="translate(646 496)"><path d="M0 -22L19.1 -11L19.1 11L0 22L-19.1 11L-19.1 -11Z" fill="#1929C7"></path></g><g transform="translate(340 401)"><path d="M0 -31L26.8 -15.5L26.8 15.5L0 31L-26.8 15.5L-26.8 -15.5Z" fill="#1929C7"></path></g><g transform="translate(872 429)"><path d="M0 -38L32.9 -19L32.9 19L0 38L-32.9 19L-32.9 -19Z" fill="#1929C7"></path></g><g transform="translate(610 188)"><path d="M0 -12L10.4 -6L10.4 6L0 12L-10.4 6L-10.4 -6Z" fill="#1929C7"></path></g><g transform="translate(877 230)"><path d="M0 -22L19.1 -11L19.1 11L0 22L-19.1 11L-19.1 -11Z" fill="#1929C7"></path></g><g transform="translate(248 147)"><path d="M0 -28L24.2 -14L24.2 14L0 28L-24.2 14L-24.2 -14Z" fill="#1929C7"></path></g><g transform="translate(525 58)"><path d="M0 -58L50.2 -29L50.2 29L0 58L-50.2 29L-50.2 -29Z" fill="#1929C7"></path></g><g transform="translate(522 333)"><path d="M0 -62L53.7 -31L53.7 31L0 62L-53.7 31L-53.7 -31Z" fill="#1929C7"></path></g><g transform="translate(7 465)"><path d="M0 -15L13 -7.5L13 7.5L0 15L-13 7.5L-13 -7.5Z" fill="#1929C7"></path></g><g transform="translate(766 31)"><path d="M0 -67L58 -33.5L58 33.5L0 67L-58 33.5L-58 -33.5Z" fill="#1929C7"></path></g><g transform="translate(21 186)"><path d="M0 -11L9.5 -5.5L9.5 5.5L0 11L-9.5 5.5L-9.5 -5.5Z" fill="#1929C7"></path></g><g transform="translate(719 298)"><path d="M0 -20L17.3 -10L17.3 10L0 20L-17.3 10L-17.3 -10Z" fill="#1929C7"></path></g><g transform="translate(388 188)"><path d="M0 -35L30.3 -17.5L30.3 17.5L0 35L-30.3 17.5L-30.3 -17.5Z" fill="#1929C7"></path></g><g transform="translate(101 13)"><path d="M0 -66L57.2 -33L57.2 33L0 66L-57.2 33L-57.2 -33Z" fill="#1929C7"></path></g></g></svg>