<svg id="visual" viewBox="0 0 960 540" width="960" height="540" xmlns="http://www.w3.org/2000/svg" xmlns:xlink="http://www.w3.org/1999/xlink" version="1.1"><rect width="960" height="540" fill="#001122"></rect><g><g transform="translate(634 201)"><path d="M0 -47.6L41.2 -23.8L41.2 23.8L0 47.6L-41.2 23.8L-41.2 -23.8Z" fill="none" stroke="#1929C7" stroke-width="2"></path></g><g transform="translate(79 242)"><path d="M0 -28L24.2 -14L24.2 14L0 28L-24.2 14L-24.2 -14Z" fill="none" stroke="#1929C7" stroke-width="2"></path></g><g transform="translate(707 474)"><path d="M0 -25L21.7 -12.5L21.7 12.5L0 25L-21.7 12.5L-21.7 -12.5Z" fill="none" stroke="#1929C7" stroke-width="2"></path></g><g transform="translate(128 91)"><path d="M0 -6L5.2 -3L5.2 3L0 6L-5.2 3L-5.2 -3Z" fill="none" stroke="#1929C7" stroke-width="2"></path></g><g transform="translate(853 430)"><path d="M0 -40L34.6 -20L34.6 20L0 40L-34.6 20L-34.6 -20Z" fill="none" stroke="#1929C7" stroke-width="2"></path></g><g transform="translate(909 191)"><path d="M0 -30L26 -15L26 15L0 30L-26 15L-26 -15Z" fill="none" stroke="#1929C7" stroke-width="2"></path></g><g transform="translate(284 373)"><path d="M0 -21L18.2 -10.5L18.2 10.5L0 21L-18.2 10.5L-18.2 -10.5Z" fill="none" stroke="#1929C7" stroke-width="2"></path></g><g transform="translate(486 342)"><path d="M0 -40L34.6 -20L34.6 20L0 40L-34.6 20L-34.6 -20Z" fill="none" stroke="#1929C7" stroke-width="2"></path></g><g transform="translate(123 426)"><path d="M0 -5L4.3 -2.5L4.3 2.5L0 5L-4.3 2.5L-4.3 -2.5Z" fill="none" stroke="#1929C7" stroke-width="2"></path></g><g transform="translate(403 437)"><path d="M0 -31L26.8 -15.5L26.8 15.5L0 31L-26.8 15.5L-26.8 -15.5Z" fill="none" stroke="#1929C7" stroke-width="2"></path></g><g transform="translate(767 157)"><path d="M0 -22L19.1 -11L19.1 11L0 22L-19.1 11L-19.1 -11Z" fill="none" stroke="#1929C7" stroke-width="2"></path></g><g transform="translate(851 286)"><path d="M0 -31L26.8 -15.5L26.8 15.5L0 31L-26.8 15.5L-26.8 -15.5Z" stroke="#1929C7" fill="none" stroke-width="2"></path></g><g transform="translate(631 345)"><path d="M0 -6L5.2 -3L5.2 3L0 6L-5.2 3L-5.2 -3Z" stroke="#1929C7" fill="none" stroke-width="2"></path></g><g transform="translate(394 198)"><path d="M0 -29L25.1 -14.5L25.1 14.5L0 29L-25.1 14.5L-25.1 -14.5Z" stroke="#1929C7" fill="none" stroke-width="2"></path></g><g transform="translate(583 454)"><path d="M0 -37L32 -18.5L32 18.5L0 37L-32 18.5L-32 -18.5Z" stroke="#1929C7" fill="none" stroke-width="2"></path></g><g transform="translate(245 468)"><path d="M0 -10L8.7 -5L8.7 5L0 10L-8.7 5L-8.7 -5Z" stroke="#1929C7" fill="none" stroke-width="2"></path></g><g transform="translate(310 116)"><path d="M0 -7L6.1 -3.5L6.1 3.5L0 7L-6.1 3.5L-6.1 -3.5Z" stroke="#1929C7" fill="none" stroke-width="2"></path></g><g transform="translate(550 87)"><path d="M0 -38L32.9 -19L32.9 19L0 38L-32.9 19L-32.9 -19Z" stroke="#1929C7" fill="none" stroke-width="2"></path></g><g transform="translate(231 61)"><path d="M0 -12L10.4 -6L10.4 6L0 12L-10.4 6L-10.4 -6Z" stroke="#1929C7" fill="none" stroke-width="2"></path></g><g transform="translate(838 61)"><path d="M0 -18L15.6 -9L15.6 9L0 18L-15.6 9L-15.6 -9Z" stroke="#1929C7" fill="none" stroke-width="2"></path></g><g transform="translate(513 209)"><path d="M0 -28L24.2 -14L24.2 14L0 28L-24.2 14L-24.2 -14Z" stroke="#1929C7" fill="none" stroke-width="2"></path></g><g transform="translate(176 197)"><path d="M0 -36L31.2 -18L31.2 18L0 36L-31.2 18L-31.2 -18Z" stroke="#1929C7" fill="none" stroke-width="2"></path></g><g transform="translate(403 82)"><path d="M0 -31L26.8 -15.5L26.8 15.5L0 31L-26.8 15.5L-26.8 -15.5Z" stroke="#1929C7" fill="none" stroke-width="2"></path></g><g transform="translate(744 355)"><path d="M0 -16L13.9 -8L13.9 8L0 16L-13.9 8L-13.9 -8Z" stroke="#1929C7" fill="none" stroke-width="2"></path></g><g transform="translate(308 243)"><path d="M0 -19L16.5 -9.5L16.5 9.5L0 19L-16.5 9.5L-16.5 -9.5Z" stroke="#1929C7" fill="none" stroke-width="2"></path></g><g transform="translate(740 59)"><path d="M0 -15L13 -7.5L13 7.5L0 15L-13 7.5L-13 -7.5Z" stroke="#1929C7" fill="none" stroke-width="2"></path></g><g transform="translate(171 330)"><path d="M0 -5L4.3 -2.5L4.3 2.5L0 5L-4.3 2.5L-4.3 -2.5Z" stroke="#1929C7" fill="none" stroke-width="2"></path></g><g transform="translate(723 257)"><path d="M0 -20L17.3 -10L17.3 10L0 20L-17.3 10L-17.3 -10Z" stroke="#1929C7" fill="none" stroke-width="2"></path></g><g transform="translate(380 334)"><path d="M0 -21L18.2 -10.5L18.2 10.5L0 21L-18.2 10.5L-18.2 -10.5Z" stroke="#1929C7" fill="none" stroke-width="2"></path></g><g transform="translate(48 492)"><path d="M0 -43L37.2 -21.5L37.2 21.5L0 43L-37.2 21.5L-37.2 -21.5Z" stroke="#1929C7" fill="none" stroke-width="2"></path></g><g transform="translate(62 350)"><path d="M0 -29L25.1 -14.5L25.1 14.5L0 29L-25.1 14.5L-25.1 -14.5Z" stroke="#1929C7" fill="none" stroke-width="2"></path></g></g></svg>