<svg id="visual" viewBox="0 0 960 540" width="960" height="540" xmlns="http://www.w3.org/2000/svg" xmlns:xlink="http://www.w3.org/1999/xlink" version="1.1"><path d="M0 55L120 87L240 55L360 77L480 66L600 71L720 66L840 50L960 66L960 0L840 0L720 0L600 0L480 0L360 0L240 0L120 0L0 0Z" fill="#001122"></path><path d="M0 206L120 212L240 185L360 163L480 201L600 179L720 228L840 249L960 179L960 64L840 48L720 64L600 69L480 64L360 75L240 53L120 85L0 53Z" fill="#001d44"></path><path d="M0 320L120 287L240 287L360 271L480 293L600 266L720 298L840 314L960 271L960 177L840 247L720 226L600 177L480 199L360 161L240 183L120 210L0 204Z" fill="#002567"></path><path d="M0 455L120 444L240 422L360 438L480 438L600 444L720 422L840 444L960 438L960 269L840 312L720 296L600 264L480 291L360 269L240 285L120 285L0 318Z" fill="#002a87"></path><path d="M0 503L120 487L240 471L360 498L480 487L600 482L720 487L840 498L960 492L960 436L840 442L720 420L600 442L480 436L360 436L240 420L120 442L0 453Z" fill="#002ba8"></path><path d="M0 541L120 541L240 541L360 541L480 541L600 541L720 541L840 541L960 541L960 490L840 496L720 485L600 480L480 485L360 496L240 469L120 485L0 501Z" fill="#1929c7"></path></svg>