<svg id="visual" viewBox="0 0 900 600" width="900" height="600" xmlns="http://www.w3.org/2000/svg" xmlns:xlink="http://www.w3.org/1999/xlink" version="1.1"><path d="M0 522L37.5 520.8C75 519.7 150 517.3 225 523.2C300 529 375 543 450 545.3C525 547.7 600 538.3 675 531.5C750 524.7 825 520.3 862.5 518.2L900 516L900 601L862.5 601C825 601 750 601 675 601C600 601 525 601 450 601C375 601 300 601 225 601C150 601 75 601 37.5 601L0 601Z" fill="#1929C7" stroke-linecap="round" stroke-linejoin="miter"></path></svg>